# xmcd
#
# Track frame offsets: 
#        150
#        9807
#        27455
#        42570
#        61550
#        77879
#        90217
#        102435
#        119415
#        132866
#        149380
#        162202
#        173524
#        186573
#        198772
#        211056
#        227462
#        239526
#        253451
#        265557
#
# Disc length: 3723 seconds
#
# Revision: 1
# Processed by: cddbd v1.5.1PL0 Copyright (c) Steve Scherf et al.
# Submitted via: ExactAudioCopy v0.95b2
#
DISCID=060e8914
DTITLE=Various Artist - Jazz in Paris 2 (Montmartre 1924-1939) - Disc
DTITLE=3 (Souvenirs de Montmartre)
DYEAR=2004
DGENRE=Jazz
TTITLE0=Gus Viseur - Le bal du p'tit jardin (June 1962)
TTITLE1=Stéphane Grappelli - Vous qui passez sans me voir (May 1954)
TTITLE2=Jazz At The Philharmonic Featuring Coleman Hawkins - Clo's Blu
TTITLE2=es (1 May 1958)
TTITLE3=Dizzy Gillespie Quintet - The way you look tonight (22 Februar
TTITLE3=y 1953)
TTITLE4=Henri Salvador - Stompin' at the Savoy (18 April 1956)
TTITLE5=Stéphane Grappelli - Crazy Blues (May 1954)
TTITLE6=Charlie Lewis - Some of These Days (21 April 1945)
TTITLE7=Alix Combelle - Don't Be That Way (November 1960)
TTITLE8=André Ekyan - I Got Rhythm (possibly 1956)
TTITLE9=André Ekyan - Crazy Rhythm (possibly 1956)
TTITLE10=Bernard Zacharias - Night and Day (1955)
TTITLE11=Bernard Zacharias - What Is This Thing Called Love? (1955)
TTITLE12=Bill Coleman and His Orchestra - The Blues Jumped Out and Got
TTITLE12=Me (9 November 1951)
TTITLE13=Louis Williams and His Crazy Rhythm - Hit That Jive Jack (10 
TTITLE13=May 1947)
TTITLE14=Harry Cooper Quintet - Mop Mop (10 May 1947)
TTITLE15=Les Amis De Django - Minor Swing (1958)
TTITLE16=Gus Viseur - Lorsque Django Jouait (June 1962)
TTITLE17=Bill Coleman and His Orchestra - Tenderly (9 November 1951)
TTITLE18=Eddie Barclay Et Son Orchestre - Place Blanche (July 1957)
TTITLE19=Jean Wetzel Avec Jean Weiner Et Son Trio - Grisbi Blues (1954
TTITLE19=)
EXTD=YEAR: 1930
EXTT0=
EXTT1=
EXTT2=
EXTT3=
EXTT4=
EXTT5=
EXTT6=
EXTT7=
EXTT8=
EXTT9=
EXTT10=
EXTT11=
EXTT12=
EXTT13=
EXTT14=
EXTT15=
EXTT16=
EXTT17=
EXTT18=
EXTT19=
PLAYORDER=
